<svg id="Ebene_1" data-name="Ebene 1" xmlns="http://www.w3.org/2000/svg" viewBox="0 0 160.4 158.5"><defs><style>.cls-1{fill:#282f39;}.cls-2{fill:none;}</style></defs><title>Zeichenfläche 1</title><path class="cls-1" d="M39.7,118.3A56.62,56.62,0,0,1,40,38.5l-10.5-11a71.83,71.83,0,0,0-.6,101.9Zm7.5-7.4,8.8-8.7a33.51,33.51,0,0,1-9.7-23.6A33,33,0,0,1,56.4,54.7l-8.6-8.6a45.88,45.88,0,0,0-.6,64.8M69.5,68.4l-6.4-6.9a23.92,23.92,0,0,0-7.3,17.4,24.75,24.75,0,0,0,6.8,17L69.2,89a15.13,15.13,0,0,1-4.1-10.3,14.18,14.18,0,0,1,4.4-10.3M3.2,78.7A76.75,76.75,0,1,1,80,155.4,76.8,76.8,0,0,1,3.2,78.7"/><rect class="cls-2" width="717.3" height="158.5"/></svg>