<?xml version="1.0" encoding="utf-8"?>
<!-- Generator: Adobe Illustrator 16.0.0, SVG Export Plug-In . SVG Version: 6.00 Build 0)  -->
<!DOCTYPE svg PUBLIC "-//W3C//DTD SVG 1.1//EN" "http://www.w3.org/Graphics/SVG/1.1/DTD/svg11.dtd">
<svg version="1.1" id="Ebene_2" xmlns="http://www.w3.org/2000/svg" xmlns:xlink="http://www.w3.org/1999/xlink" x="0px" y="0px"
	 width="717.3px" height="158.5px" viewBox="0 0 717.3 158.5" enable-background="new 0 0 717.3 158.5" xml:space="preserve">
<path fill="#FFFFFF" d="M39.7,118.3c-10.1-10.2-16.3-24.2-16.3-39.7c0-15.6,6.3-29.8,16.6-40.1L29.5,27.5C16.2,40.5,8,58.6,8,78.7
	c0,19.8,7.9,37.7,20.9,50.7L39.7,118.3z M47.2,110.9l8.8-8.7c-6-6.1-9.7-14.4-9.7-23.6c0-9.4,3.8-17.8,10.1-23.9l-8.6-8.6
	C39.3,54.4,34.1,66,34.1,78.8C34.1,91.3,39.1,102.6,47.2,110.9 M69.5,68.4l-6.4-6.9c-4.6,4.4-7.3,10.6-7.3,17.4
	c0,6.5,2.6,12.6,6.8,17l6.6-6.9c-2.5-2.7-4.1-6.3-4.1-10.3C65.1,74.5,66.8,71.1,69.5,68.4 M3.2,78.7C3.2,36.4,37.6,2,80,2
	c42.4,0,76.7,34.4,76.7,76.7s-34.4,76.7-76.7,76.7C37.6,155.5,3.2,121.1,3.2,78.7"/>
<path fill="#FFFFFF" d="M713.4,76.9H712c-0.7-0.2-1.6-0.4-2.8-0.5c-1.2-0.1-2.6-0.2-4.1-0.2c-1.8,0-3.7,0.3-5.6,0.8
	c-2,0.5-3.9,1.1-5.7,1.9v36.7h-17.1V60.8h17.1v7.9c0.8-0.7,1.9-1.6,3.2-2.7c1.4-1.1,2.6-2,3.8-2.6c1.2-0.7,2.7-1.4,4.3-1.9
	c1.6-0.5,3.2-0.8,4.7-0.8c0.6,0,1.2,0,1.9,0c0.7,0,1.3,0.1,1.9,0.1V76.9z"/>
<path fill="#FFFFFF" d="M202.3,116.9c-4.8,0-9.1-0.8-13.1-2.4c-4-1.6-7.4-4-10.3-7.1c-2.9-3.2-5.1-7.1-6.7-11.8
	c-1.6-4.7-2.4-10.1-2.4-16.3c0-6.1,0.8-11.4,2.3-15.9c1.5-4.5,3.8-8.5,6.8-11.8c2.9-3.3,6.3-5.7,10.3-7.4c4-1.7,8.4-2.6,13.3-2.6
	c2.4,0,4.7,0.2,6.9,0.5c2.1,0.4,4.1,0.8,5.9,1.4c1.6,0.5,3.2,1.1,4.8,1.8c1.6,0.7,3.3,1.5,4.9,2.4v11.7h-0.8
	c-0.8-0.8-1.9-1.7-3.3-2.8c-1.3-1.1-3-2.2-4.9-3.3c-1.9-1-3.9-1.8-6.1-2.5c-2.2-0.7-4.7-1-7.6-1c-3.1,0-6,0.6-8.8,1.9
	c-2.8,1.3-5.2,3.1-7.3,5.6c-2,2.5-3.6,5.6-4.8,9.3c-1.1,3.7-1.7,8-1.7,12.6c0,5,0.6,9.3,1.8,12.9c1.2,3.6,2.8,6.6,4.9,9.1
	c2,2.4,4.4,4.2,7.1,5.4c2.7,1.2,5.6,1.8,8.7,1.8c2.8,0,5.4-0.3,7.8-1c2.4-0.7,4.5-1.5,6.3-2.6c1.8-1,3.3-2,4.6-3.1
	c1.3-1.1,2.3-2,3.1-2.7h0.7v11.5c-1.6,0.7-3.1,1.5-4.5,2.1c-1.4,0.7-3.1,1.4-5.2,2c-2.1,0.7-4.1,1.2-5.9,1.6
	C207.5,116.7,205.2,116.9,202.3,116.9"/>
<rect x="233.4" y="39.6" fill="#FFFFFF" width="9.2" height="76"/>
<path fill="#FFFFFF" d="M300.9,88.4c0,9.2-2.2,16.3-6.6,21.3c-4.4,5-10.3,7.5-17.7,7.5c-7.6,0-13.5-2.6-17.9-7.7
	c-4.3-5.2-6.5-12.2-6.5-21c0-9.1,2.2-16.2,6.7-21.2c4.5-5,10.4-7.6,17.7-7.6c7.4,0,13.2,2.5,17.7,7.5
	C298.7,72.1,300.9,79.2,300.9,88.4 M291.5,88.4c0-7.1-1.3-12.3-3.9-15.7c-2.6-3.4-6.2-5.2-11-5.2c-4.8,0-8.5,1.7-11.1,5.2
	c-2.6,3.4-3.9,8.7-3.9,15.7c0,6.8,1.3,12,3.9,15.6c2.6,3.5,6.3,5.3,11.1,5.3c4.7,0,8.4-1.7,11-5.2
	C290.2,100.5,291.5,95.3,291.5,88.4"/>
<path fill="#FFFFFF" d="M352.8,115.6h-9.2v-6.1c-2.8,2.5-5.5,4.4-8.1,5.6c-2.5,1.3-5.4,1.9-8.5,1.9c-2.4,0-4.6-0.4-6.7-1.2
	c-2.1-0.8-3.9-2-5.5-3.7c-1.6-1.7-2.8-3.8-3.6-6.4c-0.9-2.6-1.3-5.7-1.3-9.4V61.1h9.2v31.1c0,2.9,0.1,5.3,0.3,7.2
	c0.2,1.9,0.7,3.6,1.4,5c0.7,1.4,1.8,2.4,3.1,3.1c1.3,0.7,3.1,1,5.5,1c2.2,0,4.6-0.6,7.2-1.9c2.5-1.3,4.9-2.8,7-4.7V61.1h9.2V115.6z"
	/>
<path fill="#FFFFFF" d="M408.1,115.6h-9.2V110c-1.4,1.2-2.7,2.2-3.7,3c-1,0.8-2.3,1.5-3.7,2.1c-1.3,0.6-2.7,1.1-4.1,1.4
	c-1.4,0.3-3,0.5-4.9,0.5c-3,0-5.7-0.6-8.2-1.9c-2.5-1.2-4.7-3-6.4-5.4c-1.8-2.4-3.2-5.4-4.2-8.9c-1-3.5-1.5-7.6-1.5-12.2
	c0-4.8,0.6-8.9,1.9-12.4c1.2-3.5,2.9-6.6,5.1-9.2c2-2.4,4.4-4.2,7.2-5.6c2.8-1.4,5.8-2,8.9-2c2.7,0,5.1,0.3,7.1,0.9
	c2,0.6,4.2,1.5,6.4,2.8V39.6h9.2V115.6z M398.9,102.3V70.9c-2.3-1.1-4.3-1.9-6.1-2.3c-1.8-0.4-3.8-0.6-5.9-0.6
	c-4.7,0-8.4,1.8-11.1,5.3c-2.7,3.5-4,8.6-4,15.3c0,6.4,1,11.3,3.1,14.7c2.1,3.4,5.3,5.1,9.9,5.1c2.4,0,4.8-0.5,7.3-1.6
	S396.8,104.2,398.9,102.3"/>
<path fill="#FFFFFF" d="M489.5,115.6h-22.3L447,88.9h-6.5v26.7h-18.2V42.9h29.2c4,0,7.6,0.3,10.5,0.8c3,0.5,5.8,1.6,8.3,3.1
	c2.6,1.7,4.7,3.8,6.2,6.3c1.5,2.6,2.3,5.8,2.3,9.7c0,5.6-1.3,10.1-3.8,13.5c-2.5,3.5-5.9,6.2-10.1,8.3L489.5,115.6z M460.1,65.2
	c0-1.8-0.4-3.4-1-4.7c-0.7-1.3-1.9-2.3-3.5-3.1c-1.1-0.5-2.4-0.8-3.8-0.9c-1.4-0.1-3.1-0.2-5.2-0.2h-6.1v19.6h5.2
	c2.5,0,4.7-0.2,6.5-0.5c1.8-0.3,3.3-1,4.5-2c1.2-0.9,2-2,2.6-3.3C459.8,68.9,460.1,67.2,460.1,65.2"/>
<path fill="#FFFFFF" d="M524.1,109.8c-1.2,1-2.2,1.9-3.1,2.6c-0.9,0.8-2.2,1.6-3.7,2.3c-1.5,0.7-3,1.3-4.5,1.7
	c-1.4,0.4-3.5,0.6-6.1,0.6c-4.8,0-8.9-1.6-12.1-4.9c-3.2-3.3-4.8-7.4-4.8-12.3c0-4.1,0.8-7.4,2.4-9.9c1.6-2.5,4-4.5,7-6
	c3.1-1.5,6.8-2.5,11.1-3.1c4.3-0.6,8.9-1,13.9-1.4v-0.3c0-3-1.1-5.1-3.3-6.3c-2.2-1.2-5.6-1.7-10-1.7c-2,0-4.4,0.4-7.1,1.1
	c-2.7,0.7-5.3,1.7-7.9,2.8h-1.5V61.9c1.7-0.5,4.4-1.1,8.2-1.7c3.8-0.7,7.6-1,11.4-1c9.4,0,16.3,1.6,20.6,4.7
	c4.3,3.1,6.5,7.9,6.5,14.4v37.3h-17V109.8z M524.1,101.3V89.9c-2.9,0.3-5.2,0.5-7,0.8c-1.8,0.2-3.5,0.6-5.3,1.2
	c-1.5,0.5-2.7,1.3-3.5,2.4c-0.8,1.1-1.2,2.5-1.2,4.2c0,2.6,0.7,4.3,2.1,5.3c1.4,1,3.4,1.4,6.1,1.4c1.5,0,3-0.3,4.6-1
	C521.4,103.5,522.8,102.5,524.1,101.3"/>
<path fill="#FFFFFF" d="M603.6,115.6h-17.1v-5.7c-1.1,0.9-2.4,1.9-3.8,2.9c-1.4,1-2.7,1.8-3.7,2.3c-1.4,0.7-2.7,1.1-4.1,1.5
	c-1.3,0.3-2.9,0.5-4.8,0.5c-6.2,0-11.2-2.6-14.8-7.8c-3.6-5.2-5.5-12.1-5.5-20.8c0-4.8,0.6-8.9,1.9-12.5c1.2-3.5,2.9-6.6,5.1-9.2
	c2-2.4,4.4-4.3,7.2-5.6c2.8-1.4,5.8-2.1,9-2.1c2.9,0,5.2,0.3,7.1,0.9c1.8,0.6,4,1.5,6.4,2.8V39.6h17.1V115.6z M586.5,100.5V73.6
	c-0.8-0.4-2-0.8-3.3-1c-1.4-0.3-2.5-0.4-3.5-0.4c-4.1,0-7.2,1.4-9.3,4.3c-2.1,2.9-3.1,6.9-3.1,12c0,5.4,0.8,9.3,2.5,11.7
	c1.6,2.4,4.3,3.6,8,3.6c1.5,0,3-0.3,4.5-0.9C583.8,102.3,585.2,101.5,586.5,100.5"/>
<path fill="#FFFFFF" d="M646.9,109.8c-1.2,1-2.2,1.9-3.1,2.6c-0.9,0.8-2.2,1.6-3.7,2.3c-1.5,0.7-3,1.3-4.5,1.7
	c-1.4,0.4-3.5,0.6-6.1,0.6c-4.8,0-8.9-1.6-12.1-4.9c-3.2-3.3-4.8-7.4-4.8-12.3c0-4.1,0.8-7.4,2.4-9.9c1.6-2.5,4-4.5,7-6
	c3.1-1.5,6.8-2.5,11.1-3.1c4.3-0.6,8.9-1,13.9-1.4v-0.3c0-3-1.1-5.1-3.3-6.3c-2.2-1.2-5.6-1.7-10-1.7c-2,0-4.4,0.4-7.1,1.1
	c-2.7,0.7-5.3,1.7-7.9,2.8h-1.5V61.9c1.7-0.5,4.4-1.1,8.2-1.7c3.8-0.7,7.6-1,11.4-1c9.4,0,16.3,1.6,20.6,4.7
	c4.3,3.1,6.5,7.9,6.5,14.4v37.3h-17V109.8z M646.9,101.3V89.9c-2.9,0.3-5.2,0.5-7,0.8c-1.8,0.2-3.5,0.6-5.3,1.2
	c-1.5,0.5-2.7,1.3-3.5,2.4c-0.8,1.1-1.2,2.5-1.2,4.2c0,2.6,0.7,4.3,2.1,5.3c1.4,1,3.4,1.4,6.1,1.4c1.5,0,3-0.3,4.6-1
	C644.2,103.5,645.6,102.5,646.9,101.3"/>
<rect fill="none" width="717.3" height="158.5"/>
</svg>
