<svg version="1" xmlns="http://www.w3.org/2000/svg" width="240" height="240" viewBox="0 0 180.000000 180.000000"><path d="M85 1.9C53.7 8.7 30 29 18.6 58.5c-1.3 3.5-2.2 6.7-4.3 15-1 4.1-1.2 26.2-.2 31 .6 2.7 1.2 6 1.5 7.3 2.7 13.3 14.2 33.2 25 43.3 11 10.2 25.6 18.2 39.9 22 15.1 4 35.6 3.3 50.5-1.6 13.4-4.4 32-16.4 34.7-22.3 2.7-6 .6-13-4.8-15.8-6-3-9.5-2.1-18 4.6-11 8.7-27.3 13.9-41.9 13.4-4.7-.2-9.5-.6-10.7-.9-1.3-.3-3.1-.7-4-.9-8.6-2-21.5-9.1-28.4-15.7-7.3-7.1-14.2-17.8-17.4-27.4-.3-1.1-.6-2-.6-2s-.6-2.5-1.4-5.7c-1.2-5.5-1.3-20.4-.1-26.1 3.9-17.8 15.5-33.9 31-43.1 9.9-5.9 20.4-8.8 32.1-8.9 11.4-.1 13.5.2 22.5 3.3 7.2 2.4 13.5 5.8 19.3 10.2l3.7 3-10.2 9.6c-5.6 5.4-14 13.4-18.7 17.9-8.2 7.8-8.7 8.1-13.3 8.1-6 .1-10.4 2.6-12.9 7.4-5.7 11.1 5.6 22.9 16.9 17.8 5.4-2.4 8.3-7.1 8-12.9-.1-3 .3-4.7 1.4-5.5.9-.7 9-8.2 18-16.8 9-8.6 19.1-18.2 22.5-21.5 7-6.6 8.3-8.8 8.3-13.5 0-5.3-2.8-8.6-13.3-15.9C139.5 6 124.3 1.2 105.5.5 96.2.1 91.6.4 85 1.9z"/></svg>