<?xml version="1.0" encoding="UTF-8"?>
<svg xmlns="http://www.w3.org/2000/svg" xmlns:xlink="http://www.w3.org/1999/xlink" viewBox="0 0 50 50" version="1.1" width="50px" height="50px">
<g id="surface1">
<path style=" " d="M 24 1.9375 C 19.355469 1.9375 17 5.300781 17 11.9375 L 17 16.9375 C 17 17.308594 16.898438 17.75 16.722656 18.105469 C 16.664063 18.226563 16.382813 18.625 16.132813 18.972656 C 14.742188 20.917969 11.667969 26.292969 11.097656 32.136719 C 11.320313 32.09375 11.546875 32.0625 11.800781 32.0625 C 12.414063 32.0625 14.03125 32.0625 16.609375 36.316406 C 17.101563 37.023438 17.359375 37.457031 17.714844 38.050781 C 17.953125 38.457031 18.246094 38.953125 18.714844 39.699219 L 18.738281 39.734375 L 18.765625 39.777344 C 19.035156 40.257813 19.316406 40.640625 19.589844 41.003906 C 19.746094 41.214844 19.90625 41.433594 20.0625 41.660156 C 20.675781 41.414063 21.300781 41.046875 21.671875 40.515625 C 22.160156 39.703125 22.105469 38.738281 21.527344 37.871094 C 21.289063 37.507813 20.847656 37.25 19.792969 36.644531 C 19.160156 36.285156 18.375 35.835938 18.015625 35.527344 C 17.175781 34.808594 16 33.242188 16 32 C 16 29.34375 17.777344 25.292969 19.203125 22.890625 C 20.019531 21.519531 20.640625 20.460938 20.886719 19.558594 C 21.027344 19.65625 21.183594 19.75 21.402344 19.824219 L 21.4375 19.835938 L 21.476563 19.847656 C 22.171875 20.03125 22.871094 20 23.324219 20 C 24.265625 20 24.945313 19.546875 25.578125 19.167969 C 26.199219 18.789063 26.8125 18.4375 26.902344 18.40625 C 27.355469 19.261719 27.941406 20.054688 28.550781 20.878906 C 30.222656 23.128906 32.230469 26.914063 32.824219 32.535156 C 33.601563 32.125 34.046875 32 35 32 C 35.019531 32 35.042969 32.003906 35.0625 32.003906 C 35.148438 32 35.230469 31.992188 35.316406 31.992188 C 35.566406 31.992188 35.820313 32.007813 36.070313 32.03125 C 36.660156 32.066406 37.449219 32.269531 37.914063 32.429688 C 38.695313 32.660156 39.339844 33.070313 39.792969 33.59375 C 40.199219 33.597656 40.589844 33.691406 40.949219 33.867188 C 40.949219 33.214844 41 32.257813 41 32 C 41 28.699219 38.835938 24.144531 37.207031 21.808594 C 36.871094 21.324219 36.546875 20.871094 36.234375 20.4375 C 34.792969 18.441406 33.652344 16.863281 33 14.144531 C 32.570313 12.378906 32.511719 11.832031 32.453125 11.304688 C 32.398438 10.773438 32.335938 10.21875 31.980469 8.726563 C 31.332031 5.703125 30.53125 1.9375 24 1.9375 Z M 21 7.9375 C 22.105469 7.9375 23 9.949219 23 11.609375 C 23 11.710938 22.988281 11.871094 22.980469 12.015625 C 22.90625 12.011719 22.832031 12 22.753906 12 C 22.46875 12 22.203125 12.042969 21.949219 12.109375 C 21.828125 11.472656 21.460938 11 21 11 C 20.449219 11 20 11.671875 20 12.5 C 20 12.703125 20.027344 12.894531 20.078125 13.070313 C 19.808594 13.273438 19.601563 13.445313 19.480469 13.566406 C 19.445313 13.597656 19.417969 13.621094 19.386719 13.648438 C 19.3125 13.492188 19.25 13.332031 19.195313 13.15625 C 19.082031 12.457031 19 11.609375 19 11.609375 C 19 9.949219 19.894531 7.9375 21 7.9375 Z M 26 7.9375 C 27.105469 7.9375 28 9.949219 28 11.609375 C 28 12.226563 27.867188 12.953125 27.652344 13.527344 C 27.375 13.410156 27.109375 13.320313 26.84375 13.253906 C 26.933594 13.03125 27 12.78125 27 12.5 C 27 11.671875 26.550781 11 26 11 C 25.449219 11 25 11.671875 25 12.5 C 25 12.503906 25 12.507813 25 12.511719 C 24.703125 12.390625 24.375 12.273438 24.03125 12.183594 C 24.015625 11.972656 24 11.757813 24 11.609375 C 24 9.949219 24.894531 7.9375 26 7.9375 Z M 22.753906 14 C 23.160156 14 23.75 14.160156 24.289063 14.378906 C 24.828125 14.597656 25.285156 14.839844 25.667969 15 L 25.746094 15.035156 L 25.828125 15.050781 C 26.335938 15.171875 26.792969 15.300781 26.980469 15.398438 C 26.929688 15.828125 26.878906 16.0625 26.855469 16.097656 C 26.828125 16.140625 26.6875 16.273438 26.175781 16.546875 C 25.542969 16.773438 25.0625 17.140625 24.546875 17.453125 C 23.980469 17.792969 23.40625 18 23.324219 18 C 22.886719 18 22.28125 17.96875 22.039063 17.917969 C 22.132813 17.945313 21.96875 17.863281 21.761719 17.671875 C 21.539063 17.460938 21.261719 17.171875 20.980469 16.871094 L 20.90625 16.796875 L 20.828125 16.742188 C 20.507813 16.515625 20.257813 16.3125 20.136719 16.167969 C 20.011719 16.019531 20 15.976563 20 15.878906 C 20 15.730469 19.972656 15.820313 20.0625 15.71875 C 20.152344 15.613281 20.425781 15.398438 20.796875 15.070313 L 20.832031 15.042969 L 20.863281 15.007813 C 20.808594 15.066406 21.171875 14.710938 21.566406 14.453125 C 21.960938 14.195313 22.449219 14 22.753906 14 Z M 35.316406 33.996094 C 34.382813 33.996094 33.734375 34.273438 33.558594 34.496094 C 33.964844 34.964844 34.214844 35.417969 34.472656 36.238281 C 34.75 36.847656 35.445313 37 36 37 C 37.695313 37 38.023438 35.980469 38.558594 35.40625 C 38.558594 35.40625 38.417969 35.25 38.417969 35.097656 C 38.277344 34.792969 37.863281 34.488281 37.308594 34.335938 C 36.890625 34.183594 36.195313 34.03125 35.917969 34.03125 C 35.707031 34.003906 35.507813 33.996094 35.316406 33.996094 Z M 11.800781 34.0625 C 11.105469 34.0625 10.761719 34.40625 10.296875 34.871094 C 9.832031 35.332031 9.339844 36.050781 8.527344 36.628906 C 7.8125 37.558594 5.675781 36.664063 5.0625 38.0625 C 4.722656 38.828125 5.890625 39.835938 5.890625 41.566406 C 5.890625 42.261719 5.308594 42.722656 5.195313 43.1875 C 5.078125 43.761719 4.960938 44.109375 5.195313 44.570313 C 5.65625 45.261719 6.238281 45.496094 10.179688 46.300781 C 12.265625 46.765625 14.238281 47.921875 15.511719 48.035156 C 16.785156 48.148438 18.988281 48.035156 18.988281 44.917969 C 19.105469 43.070313 18.0625 42.609375 17.019531 40.761719 C 15.859375 38.910156 15.746094 38.566406 14.933594 37.410156 C 14.238281 36.253906 12.730469 34.0625 11.800781 34.0625 Z M 32.234375 36.058594 C 32 36.527344 32 36.882813 32 38.0625 C 32 39.007813 32 40.070313 31.882813 40.898438 C 31.644531 42.90625 31 43.808594 31 44.988281 C 31 46.289063 31.355469 47.117188 31.828125 47.472656 C 32.179688 47.828125 32.773438 48.0625 34.074219 48.0625 C 35.371094 48.0625 36.199219 47.589844 37.027344 46.765625 C 37.617188 46.171875 38.089844 45.9375 39.746094 44.753906 C 41.042969 43.925781 43.054688 42.863281 43.40625 42.511719 C 43.644531 42.273438 44 42.152344 44 41.441406 C 44 40.851563 43.527344 40.617188 43.171875 40.5 C 42.699219 40.261719 41.875 39.90625 41.164063 38.84375 C 40.855469 38.332031 40.902344 37.015625 40.53125 36.214844 L 40.019531 36.765625 C 39.960938 36.828125 39.910156 36.910156 39.851563 36.984375 C 39.367188 37.640625 38.359375 39 36 39 C 34.453125 39 33.203125 38.277344 32.652344 37.0625 L 32.601563 36.953125 L 32.5625 36.832031 C 32.4375 36.433594 32.335938 36.21875 32.234375 36.058594 Z M 29.503906 42.449219 C 28.550781 43.269531 27.09375 44.0625 25 44.0625 C 22.871094 44.0625 21.433594 43.277344 20.519531 42.472656 C 20.835938 43.136719 21.046875 43.925781 20.988281 44.980469 C 20.988281 45.359375 20.953125 45.71875 20.898438 46.0625 L 29.082031 46.0625 C 29.035156 45.71875 29 45.367188 29 44.988281 C 29 44.105469 29.21875 43.386719 29.433594 42.691406 C 29.457031 42.613281 29.480469 42.527344 29.503906 42.449219 Z "/>
</g>
</svg>
